<svg width="52" height="49" viewBox="0 0 52 49" fill="none" xmlns="http://www.w3.org/2000/svg">
<path d="M48.3548 39.985C44.503 45.6349 36.9711 48.5 25.972 48.5L25.9535 48.5C14.9708 48.4968 7.45737 45.6307 3.62219 39.9816C0.411725 35.2522 -2.51111e-06 29.2237 -2.09814e-06 24.5C-1.6852e-06 19.7764 0.411727 13.7481 3.62219 9.01901C7.45737 3.36994 14.9708 0.503769 25.9539 0.500002L25.9754 0.500002C36.9743 0.499815 44.503 3.36435 48.3546 9.0143C51.5857 13.7537 52 19.7797 52 24.5C52 29.2201 51.5857 35.2458 48.3548 39.985Z" fill="#0A122A"/>
<g opacity="0.9">
<rect x="23.7285" y="21.1729" width="18.4111" height="18.4111" rx="9.20553" fill="#42A5F5"/>
<path d="M28.6556 24.8999L28.303 26.7544H35.6762L35.4375 27.9537H28.0697L27.7116 29.8026H35.0848L34.6725 31.918L31.6993 32.923L29.1222 31.918L29.3013 31.0074H27.4892L27.0605 33.2284L31.3196 34.8941L36.2296 33.2284L36.8807 29.8803L37.0109 29.2085L37.8464 24.8999H28.6556Z" fill="white"/>
</g>
<g opacity="0.9">
<rect x="9" y="21.1729" width="18.4111" height="18.4111" rx="9.20553" fill="#E44D26"/>
<g clip-path="url(#clip0_1455_8393)">
<rect width="10.4636" height="11.9584" transform="translate(12.4922 23.9175)" fill="white"/>
<path d="M17.7245 35.3962L21.2285 34.4304L21.702 29.2167H15.4689L15.314 27.4816H21.857L22.0291 25.7807H13.42L13.9021 30.9175H19.8338L19.6358 33.1227L17.7245 33.6355L15.8133 33.1227L15.6928 31.7039H13.9709L14.2206 34.4304L17.7245 35.3962ZM10.8975 22.9517H24.5516L23.3205 36.7979L17.7245 38.3364L12.1286 36.7979L10.8975 22.9517Z" fill="white"/>
<path d="M17.7245 35.3962L21.2285 34.4304L21.702 29.2167H15.4689L15.314 27.4816H21.857L22.0291 25.7807H13.42L13.9021 30.9175H19.8338L19.6358 33.1227L17.7245 33.6355L15.8133 33.1227L15.6928 31.7039H13.9709L14.2206 34.4304L17.7245 35.3962ZM10.8975 22.9517H24.5516L23.3205 36.7979L17.7245 38.3364L12.1286 36.7979L10.8975 22.9517Z" fill="#E44D26"/>
</g>
</g>
<g opacity="0.9">
<rect x="16.3652" y="8.89893" width="18.4111" height="18.4111" rx="9.20553" fill="#E5D130"/>
<path d="M19.0996 20.2704L20.4901 19.4426C20.7583 19.9107 21.0025 20.3065 21.5878 20.3065C22.1487 20.3065 22.5026 20.0916 22.5026 19.2505V13.5388H24.2102V19.2742C24.2102 21.0139 23.1736 21.806 21.6612 21.806C21.1266 21.8345 20.5957 21.7029 20.1385 21.4288C19.6813 21.1546 19.3193 20.7506 19.1 20.27L19.0996 20.2704ZM25.138 20.0899L26.5285 19.2978C26.6831 19.6064 26.923 19.8658 27.2208 20.0462C27.5185 20.2266 27.8619 20.3207 28.2116 20.3177C28.9193 20.3177 29.3701 19.9696 29.3701 19.4895C29.3701 18.9136 28.9066 18.7095 28.126 18.3721L27.7005 18.1941C26.4686 17.6784 25.6513 17.0303 25.6513 15.6623C25.6513 14.4022 26.6272 13.4425 28.1517 13.4425C28.6457 13.4073 29.1393 13.516 29.5709 13.755C30.0026 13.994 30.3531 14.3527 30.5788 14.7864L29.2491 15.6267C29.1618 15.4114 29.0101 15.2272 28.814 15.0987C28.618 14.9701 28.3869 14.9032 28.1513 14.9068C28.0486 14.8966 27.9449 14.9075 27.8467 14.9389C27.7486 14.9704 27.6581 15.0216 27.5812 15.0893C27.5043 15.1571 27.4426 15.2398 27.4001 15.3324C27.3575 15.4249 27.335 15.5251 27.334 15.6267C27.334 16.1308 27.6511 16.3345 28.3824 16.6465L28.8092 16.8266C30.2608 17.4386 31.0777 18.0626 31.0777 19.4663C31.0777 20.9782 29.8703 21.8064 28.2483 21.8064C26.6626 21.8064 25.6382 21.0625 25.138 20.0903" fill="#06070B"/>
</g>
<defs>
<clipPath id="clip0_1455_8393">
<rect width="10.4636" height="11.9584" fill="white" transform="translate(12.4922 23.9175)"/>
</clipPath>
</defs>
</svg>
